<svg width="24" height="18" viewBox="0 0 24 18" fill="none" xmlns="http://www.w3.org/2000/svg">
<path d="M0 15C0 15.7072 0.280952 16.3855 0.781049 16.8856C1.28115 17.3857 1.95942 17.6667 2.66667 17.6667H21.3333C22.0406 17.6667 22.7189 17.3857 23.219 16.8856C23.719 16.3855 24 15.7072 24 15V11.6667H0V15Z" fill="#138808"/>
<path d="M24 6.33333V3C24 2.29275 23.719 1.61448 23.219 1.11438C22.7189 0.614284 22.0406 0.333332 21.3333 0.333332H2.66667C1.95942 0.333332 1.28115 0.614284 0.781049 1.11438C0.280952 1.61448 0 2.29275 0 3L0 6.33333H24Z" fill="#FF9933"/>
<path d="M0 6.11133H24V11.8893H0V6.11133Z" fill="#F7F7F7"/>
<path d="M11.9999 11.6667C13.4727 11.6667 14.6666 10.4728 14.6666 9C14.6666 7.52724 13.4727 6.33333 11.9999 6.33333C10.5272 6.33333 9.33325 7.52724 9.33325 9C9.33325 10.4728 10.5272 11.6667 11.9999 11.6667Z" fill="#000080"/>
<path d="M12 11.25C13.2426 11.25 14.25 10.2426 14.25 9C14.25 7.75736 13.2426 6.75 12 6.75C10.7574 6.75 9.75 7.75736 9.75 9C9.75 10.2426 10.7574 11.25 12 11.25Z" fill="#F7F7F7"/>
<path d="M12.0667 8.16667L12 8.6L11.9334 8.16667L12 6.86667L12.0667 8.16667ZM11.448 6.93934L11.72 8.212L11.8967 8.61334L11.8487 8.178L11.448 6.93934ZM10.9334 7.15267L11.5254 8.31133L11.8 8.65333L11.6414 8.24467L10.9334 7.15267ZM10.4914 7.49134L11.3634 8.458L11.7174 8.71734L11.458 8.36334L10.4914 7.49134ZM10.1527 7.93334L11.2447 8.64134L11.6534 8.8L11.3114 8.52534L10.1527 7.93334ZM9.93937 8.448L11.178 8.84867L11.6134 8.89667L11.212 8.72L9.93937 8.448ZM9.8667 9L11.1667 9.06667L11.6 9L11.1667 8.93334L9.8667 9ZM9.93937 9.552L11.212 9.28L11.6134 9.10334L11.178 9.15133L9.93937 9.552ZM10.1527 10.0667L11.3114 9.47467L11.6534 9.2L11.2447 9.35867L10.1527 10.0667ZM10.4914 10.5087L11.458 9.63667L11.7174 9.28267L11.3634 9.542L10.4914 10.5087ZM10.9334 10.8473L11.6414 9.75533L11.8 9.34667L11.5254 9.68867L10.9334 10.8473ZM11.448 11.0607L11.8487 9.822L11.8967 9.38667L11.72 9.788L11.448 11.0607ZM12 11.1333L12.0667 9.83334L12 9.4L11.9334 9.83334L12 11.1333ZM12.552 11.0607L12.28 9.788L12.1034 9.38667L12.1514 9.822L12.552 11.0607ZM13.0667 10.8473L12.4747 9.68867L12.2 9.34667L12.3587 9.75533L13.0667 10.8473ZM13.5087 10.5087L12.6367 9.542L12.2827 9.28267L12.542 9.63667L13.5087 10.5087ZM13.8474 10.0667L12.7554 9.35867L12.3467 9.2L12.6887 9.47467L13.8474 10.0667ZM14.0607 9.552L12.822 9.15133L12.3867 9.10334L12.788 9.28L14.0607 9.552ZM14.1334 9L12.8334 8.93334L12.4 9L12.8334 9.06667L14.1334 9ZM14.0607 8.448L12.788 8.72L12.3867 8.89667L12.822 8.84867L14.0607 8.448ZM13.8474 7.93334L12.6887 8.52534L12.3467 8.8L12.7554 8.64134L13.8474 7.93334ZM13.5087 7.49134L12.542 8.36334L12.2827 8.71734L12.6367 8.458L13.5087 7.49134ZM13.0667 7.15267L12.3587 8.24467L12.2 8.65333L12.4747 8.31133L13.0667 7.15267ZM12.552 6.93934L12.1514 8.178L12.1034 8.61334L12.28 8.212L12.552 6.93934Z" fill="#6666B3"/>
<path d="M11.7067 6.906C11.7803 6.906 11.84 6.8463 11.84 6.77267C11.84 6.69903 11.7803 6.63933 11.7067 6.63933C11.6331 6.63933 11.5734 6.69903 11.5734 6.77267C11.5734 6.8463 11.6331 6.906 11.7067 6.906Z" fill="#000080"/>
<path d="M11.14 7.058C11.2137 7.058 11.2734 6.9983 11.2734 6.92467C11.2734 6.85103 11.2137 6.79133 11.14 6.79133C11.0664 6.79133 11.0067 6.85103 11.0067 6.92467C11.0067 6.9983 11.0664 7.058 11.14 7.058Z" fill="#000080"/>
<path d="M10.6321 7.35067C10.7058 7.35067 10.7654 7.29097 10.7654 7.21733C10.7654 7.14369 10.7058 7.084 10.6321 7.084C10.5585 7.084 10.4988 7.14369 10.4988 7.21733C10.4988 7.29097 10.5585 7.35067 10.6321 7.35067Z" fill="#000080"/>
<path d="M10.2174 7.76533C10.2911 7.76533 10.3508 7.70564 10.3508 7.632C10.3508 7.55836 10.2911 7.49866 10.2174 7.49866C10.1438 7.49866 10.0841 7.55836 10.0841 7.632C10.0841 7.70564 10.1438 7.76533 10.2174 7.76533Z" fill="#000080"/>
<path d="M9.92472 8.27333C9.99835 8.27333 10.058 8.21364 10.058 8.14C10.058 8.06636 9.99835 8.00667 9.92472 8.00667C9.85108 8.00667 9.79138 8.06636 9.79138 8.14C9.79138 8.21364 9.85108 8.27333 9.92472 8.27333Z" fill="#000080"/>
<path d="M9.77274 8.84C9.84638 8.84 9.90607 8.7803 9.90607 8.70667C9.90607 8.63303 9.84638 8.57333 9.77274 8.57333C9.6991 8.57333 9.6394 8.63303 9.6394 8.70667C9.6394 8.7803 9.6991 8.84 9.77274 8.84Z" fill="#000080"/>
<path d="M9.77274 9.42667C9.84638 9.42667 9.90607 9.36697 9.90607 9.29333C9.90607 9.2197 9.84638 9.16 9.77274 9.16C9.6991 9.16 9.6394 9.2197 9.6394 9.29333C9.6394 9.36697 9.6991 9.42667 9.77274 9.42667Z" fill="#000080"/>
<path d="M9.92472 9.99333C9.99835 9.99333 10.058 9.93364 10.058 9.86C10.058 9.78636 9.99835 9.72667 9.92472 9.72667C9.85108 9.72667 9.79138 9.78636 9.79138 9.86C9.79138 9.93364 9.85108 9.99333 9.92472 9.99333Z" fill="#000080"/>
<path d="M10.2174 10.5013C10.2911 10.5013 10.3508 10.4416 10.3508 10.368C10.3508 10.2944 10.2911 10.2347 10.2174 10.2347C10.1438 10.2347 10.0841 10.2944 10.0841 10.368C10.0841 10.4416 10.1438 10.5013 10.2174 10.5013Z" fill="#000080"/>
<path d="M10.6321 10.916C10.7058 10.916 10.7654 10.8563 10.7654 10.7827C10.7654 10.709 10.7058 10.6493 10.6321 10.6493C10.5585 10.6493 10.4988 10.709 10.4988 10.7827C10.4988 10.8563 10.5585 10.916 10.6321 10.916Z" fill="#000080"/>
<path d="M11.14 11.2087C11.2137 11.2087 11.2734 11.149 11.2734 11.0753C11.2734 11.0017 11.2137 10.942 11.14 10.942C11.0664 10.942 11.0067 11.0017 11.0067 11.0753C11.0067 11.149 11.0664 11.2087 11.14 11.2087Z" fill="#000080"/>
<path d="M11.7067 11.3607C11.7803 11.3607 11.84 11.301 11.84 11.2273C11.84 11.1537 11.7803 11.094 11.7067 11.094C11.6331 11.094 11.5734 11.1537 11.5734 11.2273C11.5734 11.301 11.6331 11.3607 11.7067 11.3607Z" fill="#000080"/>
<path d="M12.2934 11.3607C12.367 11.3607 12.4267 11.301 12.4267 11.2273C12.4267 11.1537 12.367 11.094 12.2934 11.094C12.2197 11.094 12.16 11.1537 12.16 11.2273C12.16 11.301 12.2197 11.3607 12.2934 11.3607Z" fill="#000080"/>
<path d="M12.86 11.2087C12.9337 11.2087 12.9934 11.149 12.9934 11.0753C12.9934 11.0017 12.9337 10.942 12.86 10.942C12.7864 10.942 12.7267 11.0017 12.7267 11.0753C12.7267 11.149 12.7864 11.2087 12.86 11.2087Z" fill="#000080"/>
<path d="M13.3681 10.916C13.4417 10.916 13.5014 10.8563 13.5014 10.7827C13.5014 10.709 13.4417 10.6493 13.3681 10.6493C13.2944 10.6493 13.2347 10.709 13.2347 10.7827C13.2347 10.8563 13.2944 10.916 13.3681 10.916Z" fill="#000080"/>
<path d="M13.7827 10.5013C13.8564 10.5013 13.9161 10.4416 13.9161 10.368C13.9161 10.2944 13.8564 10.2347 13.7827 10.2347C13.7091 10.2347 13.6494 10.2944 13.6494 10.368C13.6494 10.4416 13.7091 10.5013 13.7827 10.5013Z" fill="#000080"/>
<path d="M14.0754 9.99333C14.149 9.99333 14.2087 9.93364 14.2087 9.86C14.2087 9.78636 14.149 9.72667 14.0754 9.72667C14.0017 9.72667 13.942 9.78636 13.942 9.86C13.942 9.93364 14.0017 9.99333 14.0754 9.99333Z" fill="#000080"/>
<path d="M14.2274 9.42667C14.3011 9.42667 14.3608 9.36697 14.3608 9.29333C14.3608 9.2197 14.3011 9.16 14.2274 9.16C14.1538 9.16 14.0941 9.2197 14.0941 9.29333C14.0941 9.36697 14.1538 9.42667 14.2274 9.42667Z" fill="#000080"/>
<path d="M14.2274 8.84C14.3011 8.84 14.3608 8.7803 14.3608 8.70667C14.3608 8.63303 14.3011 8.57333 14.2274 8.57333C14.1538 8.57333 14.0941 8.63303 14.0941 8.70667C14.0941 8.7803 14.1538 8.84 14.2274 8.84Z" fill="#000080"/>
<path d="M14.0754 8.27333C14.149 8.27333 14.2087 8.21364 14.2087 8.14C14.2087 8.06636 14.149 8.00667 14.0754 8.00667C14.0017 8.00667 13.942 8.06636 13.942 8.14C13.942 8.21364 14.0017 8.27333 14.0754 8.27333Z" fill="#000080"/>
<path d="M13.7827 7.76533C13.8564 7.76533 13.9161 7.70564 13.9161 7.632C13.9161 7.55836 13.8564 7.49866 13.7827 7.49866C13.7091 7.49866 13.6494 7.55836 13.6494 7.632C13.6494 7.70564 13.7091 7.76533 13.7827 7.76533Z" fill="#000080"/>
<path d="M13.3681 7.35067C13.4417 7.35067 13.5014 7.29097 13.5014 7.21733C13.5014 7.14369 13.4417 7.084 13.3681 7.084C13.2944 7.084 13.2347 7.14369 13.2347 7.21733C13.2347 7.29097 13.2944 7.35067 13.3681 7.35067Z" fill="#000080"/>
<path d="M12.86 7.058C12.9337 7.058 12.9934 6.9983 12.9934 6.92467C12.9934 6.85103 12.9337 6.79133 12.86 6.79133C12.7864 6.79133 12.7267 6.85103 12.7267 6.92467C12.7267 6.9983 12.7864 7.058 12.86 7.058Z" fill="#000080"/>
<path d="M12.2934 6.906C12.367 6.906 12.4267 6.8463 12.4267 6.77267C12.4267 6.69903 12.367 6.63933 12.2934 6.63933C12.2197 6.63933 12.16 6.69903 12.16 6.77267C12.16 6.8463 12.2197 6.906 12.2934 6.906Z" fill="#000080"/>
<path d="M12 9.6C12.3314 9.6 12.6 9.33137 12.6 9C12.6 8.66863 12.3314 8.4 12 8.4C11.6687 8.4 11.4 8.66863 11.4 9C11.4 9.33137 11.6687 9.6 12 9.6Z" fill="#000080"/>
</svg>
